<svg xmlns="http://www.w3.org/2000/svg" viewBox="0 0 179.33 59.53"><defs><style>.cls-1{fill:#1a3761;}.cls-2{fill:none;}</style></defs><g id="LOGO"><path class="cls-1" d="M74.59,19.17h6.16v1.31h-2.3v6.34H76.89V20.48h-2.3Z"/><path class="cls-1" d="M83.39,22.05h0a1.75,1.75,0,0,1,1.6-.87,1.89,1.89,0,0,1,1.89,2.06v3.58H85.46V23.45a.91.91,0,0,0-1-1,1.14,1.14,0,0,0-1.11,1.26v3.11H81.93V19.17h1.46Z"/><path class="cls-1" d="M88,24.07a2.73,2.73,0,0,1,2.71-2.89c1.77,0,2.72,1.35,2.72,3.31h-4a1.37,1.37,0,0,0,1.4,1.37,1,1,0,0,0,1.06-.68h1.44A2.35,2.35,0,0,1,90.85,27,2.72,2.72,0,0,1,88,24.07Zm1.46-.59H91.9a1.15,1.15,0,0,0-1.16-1.17A1.22,1.22,0,0,0,89.46,23.48Z"/><path class="cls-1" d="M96.42,19.17H98v3h3v-3h1.56v7.65H101V23.45H98v3.37H96.42Z"/><path class="cls-1" d="M107.41,26.21h0a1.69,1.69,0,0,1-1.62.74c-1.13,0-1.92-.59-1.92-1.68s1-1.6,2.21-1.77c.91-.12,1.33-.2,1.33-.62s-.31-.65-.92-.65-1,.25-1.06.77h-1.3c0-1,.76-1.81,2.37-1.81s2.31.74,2.31,2V26c0,.41.07.66.2.76v.05h-1.41A1.6,1.6,0,0,1,107.41,26.21Zm0-1.33v-.82a3.83,3.83,0,0,1-1,.32c-.76.17-1.13.34-1.13.86s.34.69.85.69C107,25.93,107.42,25.42,107.42,24.88Z"/><path class="cls-1" d="M110.18,27h1.45c.12.34.43.61,1.1.61.83,0,1.22-.4,1.22-1.15v-.59h0a1.79,1.79,0,0,1-1.44.64,2.47,2.47,0,0,1-2.42-2.62,2.41,2.41,0,0,1,2.38-2.69,1.76,1.76,0,0,1,1.52.73h0v-.58h1.4V26.4a2.15,2.15,0,0,1-.65,1.67,2.88,2.88,0,0,1-2,.62C111.25,28.69,110.33,28.05,110.18,27ZM114,23.84a1.32,1.32,0,0,0-1.31-1.49c-.74,0-1.23.58-1.23,1.5s.49,1.47,1.24,1.47C113.65,25.32,114,24.65,114,23.84Z"/><path class="cls-1" d="M120.32,26.82v-.64h0A1.93,1.93,0,0,1,116.8,25V21.33h1.45v3.41c0,.65.29,1,.91,1a1.1,1.1,0,0,0,1.1-1.24V21.33h1.46v5.49Z"/><path class="cls-1" d="M122.91,24.07a2.72,2.72,0,0,1,2.71-2.89c1.77,0,2.71,1.35,2.71,3.31h-4a1.36,1.36,0,0,0,1.4,1.37,1,1,0,0,0,1.06-.68h1.44a2.36,2.36,0,0,1-2.49,1.8A2.72,2.72,0,0,1,122.91,24.07Zm1.46-.59h2.44a1.15,1.15,0,0,0-1.17-1.17A1.22,1.22,0,0,0,124.37,23.48Z"/><path class="cls-1" d="M131,23a3.68,3.68,0,0,1,3.68-4,2.91,2.91,0,0,1,3.16,2.58H136.3a1.51,1.51,0,0,0-1.62-1.27c-1.42,0-2.09,1.17-2.09,2.69s.81,2.69,2.1,2.69a1.55,1.55,0,0,0,1.65-1.35h1.52a2.68,2.68,0,0,1-.85,1.81,3.23,3.23,0,0,1-2.32.81A3.69,3.69,0,0,1,131,23Z"/><path class="cls-1" d="M138.84,24.07a2.73,2.73,0,0,1,2.72-2.89c1.77,0,2.71,1.35,2.71,3.31h-4a1.37,1.37,0,0,0,1.41,1.37,1,1,0,0,0,1.06-.68h1.43A2.35,2.35,0,0,1,141.7,27,2.72,2.72,0,0,1,138.84,24.07Zm1.46-.59h2.45a1.16,1.16,0,0,0-1.17-1.17A1.23,1.23,0,0,0,140.3,23.48Z"/><path class="cls-1" d="M146.88,22.08h0a1.79,1.79,0,0,1,1.63-.9,1.89,1.89,0,0,1,1.9,2.06v3.58H149V23.45a.91.91,0,0,0-.95-1,1.15,1.15,0,0,0-1.12,1.26v3.11h-1.45V21.33h1.42Z"/><path class="cls-1" d="M151.42,21.33h.76V19.62h1.43v1.71h.94v1h-.94v2.9a.49.49,0,0,0,.55.55h.43v1.07s-.34,0-.92,0-1.49-.28-1.49-1.32V22.3h-.76Z"/><path class="cls-1" d="M157.22,22.21h0a1.44,1.44,0,0,1,1.35-.94,1.08,1.08,0,0,1,.35,0v1.27h0a1.39,1.39,0,0,0-1.64,1.57v2.67h-1.45V21.33h1.4Z"/><path class="cls-1" d="M159.61,24.07a2.72,2.72,0,0,1,2.71-2.89c1.77,0,2.71,1.35,2.71,3.31h-4a1.37,1.37,0,0,0,1.41,1.37,1,1,0,0,0,1.06-.68H165a2.37,2.37,0,0,1-2.49,1.8A2.72,2.72,0,0,1,159.61,24.07Zm1.45-.59h2.45a1.15,1.15,0,0,0-1.17-1.17A1.23,1.23,0,0,0,161.06,23.48Z"/><path class="cls-1" d="M74.54,34.27h.76v-.49c0-1.34,1-1.81,2.44-1.66v1.12c-.69,0-1,.06-1,.62v.41h1v1h-1v4.48H75.3V35.28h-.76Z"/><path class="cls-1" d="M78.49,37a2.87,2.87,0,1,1,2.87,2.9A2.79,2.79,0,0,1,78.49,37Zm4.26,0c0-1.07-.5-1.8-1.39-1.8S80,36,80,37s.49,1.78,1.39,1.78S82.75,38.09,82.75,37Z"/><path class="cls-1" d="M86.77,35.15h0a1.44,1.44,0,0,1,1.35-.94,1.08,1.08,0,0,1,.35,0v1.27h0a1.38,1.38,0,0,0-1.64,1.56v2.68H85.36V34.27h1.41Z"/><path class="cls-1" d="M91.11,37.39h1.52c.11.92.63,1.29,1.73,1.29.79,0,1.49-.28,1.49-1s-.73-.9-1.9-1.16c-1.37-.31-2.63-.68-2.63-2.27S92.56,32,94.26,32s2.84.85,3,2.39H95.73a1.33,1.33,0,0,0-1.48-1.16c-.84,0-1.38.35-1.38.9s.53.8,1.67,1c1.57.34,2.86.71,2.86,2.36s-1.25,2.42-3,2.42C92.34,39.93,91.16,39,91.11,37.39Z"/><path class="cls-1" d="M98.35,34.27h.76V32.56h1.43v1.71h.94v1h-.94v2.91a.48.48,0,0,0,.55.55h.42v1.06s-.33,0-.91,0-1.49-.28-1.49-1.32V35.23h-.76Z"/><path class="cls-1" d="M104.15,35.15h0a1.44,1.44,0,0,1,1.35-.94,1,1,0,0,1,.34,0v1.27h0a1.38,1.38,0,0,0-1.64,1.56v2.68h-1.46V34.27h1.41Z"/><path class="cls-1" d="M110.15,39.15h0a1.71,1.71,0,0,1-1.62.73c-1.13,0-1.92-.58-1.92-1.67s1-1.6,2.21-1.77c.91-.13,1.33-.2,1.33-.62s-.31-.65-.92-.65-1,.24-1.07.77h-1.29c0-1,.76-1.81,2.37-1.81s2.31.74,2.31,2v2.79c0,.42.07.67.2.76v.06h-1.41A1.44,1.44,0,0,1,110.15,39.15Zm0-1.33V37a4.23,4.23,0,0,1-1,.32c-.76.17-1.14.34-1.14.85s.35.7.86.7A1.15,1.15,0,0,0,110.16,37.82Z"/><path class="cls-1" d="M112.54,34.27h.76V32.56h1.42v1.71h1v1h-1v2.91a.49.49,0,0,0,.55.55h.43v1.06s-.33,0-.91,0-1.49-.28-1.49-1.32V35.23h-.76Z"/><path class="cls-1" d="M116.61,37a2.71,2.71,0,0,1,2.71-2.89c1.77,0,2.71,1.35,2.71,3.3h-4a1.37,1.37,0,0,0,1.41,1.37,1,1,0,0,0,1.06-.67H122a2.38,2.38,0,0,1-2.49,1.8A2.72,2.72,0,0,1,116.61,37Zm1.46-.59h2.44a1.15,1.15,0,0,0-1.17-1.18A1.21,1.21,0,0,0,118.07,36.42Z"/><path class="cls-1" d="M123.07,39.92h1.45c.11.34.42.61,1.1.61s1.22-.4,1.22-1.15v-.6h0a1.76,1.76,0,0,1-1.44.64A2.47,2.47,0,0,1,123,36.8a2.41,2.41,0,0,1,2.38-2.68,1.76,1.76,0,0,1,1.52.73h0v-.58h1.41v5.07a2.13,2.13,0,0,1-.66,1.67,2.9,2.9,0,0,1-2,.62C124.14,41.63,123.22,41,123.07,39.92Zm3.85-3.15a1.32,1.32,0,0,0-1.31-1.48c-.74,0-1.23.57-1.23,1.49s.49,1.48,1.24,1.48C126.54,38.26,126.92,37.59,126.92,36.77Z"/><path class="cls-1" d="M129.73,32.11h1.46v1.3h-1.46Zm0,2.16h1.46v5.49h-1.46Z"/><path class="cls-1" d="M132.38,37a2.71,2.71,0,0,1,2.74-2.9,2.33,2.33,0,0,1,2.5,2H136.2a1,1,0,0,0-1-.84c-.88,0-1.33.67-1.33,1.73s.42,1.73,1.31,1.73a1,1,0,0,0,1.1-.93h1.4a2.29,2.29,0,0,1-2.47,2.1A2.73,2.73,0,0,1,132.38,37Z"/><path class="cls-1" d="M140.29,37.39h1.52c.11.92.63,1.29,1.73,1.29.79,0,1.49-.28,1.49-1s-.73-.9-1.9-1.16c-1.37-.31-2.63-.68-2.63-2.27S141.73,32,143.44,32s2.84.85,3,2.39h-1.49a1.33,1.33,0,0,0-1.48-1.16c-.84,0-1.38.35-1.38.9s.53.8,1.67,1c1.57.34,2.86.71,2.86,2.36s-1.25,2.42-3,2.42C141.52,39.93,140.34,39,140.29,37.39Z"/><path class="cls-1" d="M147.53,34.27h.76V32.56h1.43v1.71h.94v1h-.94v2.91a.48.48,0,0,0,.54.55h.43v1.06s-.33,0-.91,0-1.49-.28-1.49-1.32V35.23h-.76Z"/><path class="cls-1" d="M155.4,39.76v-.65h0a1.74,1.74,0,0,1-1.57.8,1.8,1.8,0,0,1-1.91-2V34.27h1.45v3.41c0,.64.29,1,.91,1a1.11,1.11,0,0,0,1.1-1.24V34.27h1.46v5.49Z"/><path class="cls-1" d="M157.93,37c0-1.71,1-2.9,2.35-2.9a1.75,1.75,0,0,1,1.56.81h0V32.11h1.46v7.65h-1.41V39h0a1.84,1.84,0,0,1-1.64.88C158.88,39.92,157.93,38.79,157.93,37Zm4,0c0-1-.34-1.75-1.28-1.75s-1.21.7-1.21,1.72.42,1.68,1.17,1.68S161.9,38.06,161.9,37.05Z"/><path class="cls-1" d="M164.78,32.11h1.46v1.3h-1.46Zm0,2.16h1.46v5.49h-1.46Z"/><path class="cls-1" d="M167.43,37a2.71,2.71,0,0,1,2.71-2.89c1.77,0,2.71,1.35,2.71,3.3h-4a1.37,1.37,0,0,0,1.41,1.37,1,1,0,0,0,1.06-.67h1.43a2.36,2.36,0,0,1-2.48,1.8A2.72,2.72,0,0,1,167.43,37Zm1.45-.59h2.45a1.17,1.17,0,0,0-1.17-1.18A1.23,1.23,0,0,0,168.88,36.42Z"/><path class="cls-1" d="M173.69,38H175a1.06,1.06,0,0,0,1.2.91c.65,0,1-.25,1-.63s-.69-.58-1.44-.73c-1-.19-2-.46-2-1.66s1-1.75,2.25-1.75c1.44,0,2.25.72,2.35,1.82h-1.32c-.06-.59-.43-.8-1.06-.8s-.94.21-.94.61.73.51,1.51.67,1.94.45,1.94,1.73c0,1.1-.94,1.77-2.31,1.77C174.67,39.92,173.78,39.15,173.69,38Z"/><path class="cls-1" d="M0,0V59.53H59.53V0ZM27.81,27a.88.88,0,1,0,0,1.76h.08a1,1,0,0,1,1,.63,14.34,14.34,0,0,1,.27,3.72c0,4.49-1.6,7.47-2,7.86L25.5,42.42a.21.21,0,0,0-.08.17c0,.76.09,1.21-.62,1.94s-1.75,1.26-1.75,2.15a1.56,1.56,0,0,0,.49,1.17.12.12,0,0,1,0,.19L23,48.3a1,1,0,0,1-.91,0l-.29-.16a22.43,22.43,0,0,1-2.92-2c-11.66-9-9.46-27.78,3.85-33.88C27.33,10,32.2,9.82,37.5,11.49l6.59-1.16a2.06,2.06,0,0,1,1.89.88l-2.8,3.68c.39.94,3.23,4.75,3,5.8a17.65,17.65,0,0,0-.21,3c.56,2.92,1,8.84,2.91,11.27a6.09,6.09,0,0,1-3.17,2.88c-2.08.79-6.22,1.4-7-3.19a6.66,6.66,0,0,0-.9-2.27l-1.18-1.67a7.14,7.14,0,0,1-2.07-5.21c0-2.72.87-3.69,2.54-5.36.25-.25-.89-.51-1.82-.4a1.07,1.07,0,0,0-1.08-1H34a3,3,0,0,0-1.79-1.16,1.17,1.17,0,1,0-1.89-.92,1.16,1.16,0,0,0,.49.94,3.07,3.07,0,0,0-1.71,1.16,1.09,1.09,0,0,0-1.34,1c-.92-.11-2.06.15-1.81.4,1.66,1.65,2.52,2.63,2.53,5.29a.74.74,0,0,0-.67.73c0,.41,0,.75,0,.75Z"/></g><g id="BOUNDING_BOX" data-name="BOUNDING BOX"><rect class="cls-2" width="179.33" height="59.53"/></g></svg>